<svg xmlns="http://www.w3.org/2000/svg" viewBox="0 0 48 48" width="48" height="48">
  <circle cx="24" cy="24" r="22" fill="#25D366"/>
  <path fill="#fff" d="M24 10c-7.7 0-14 6.3-14 14 0 2.5.7 4.9 1.9 7L10 38l7.3-1.9c2 1.1 4.3 1.7 6.7 1.7 7.7 0 14-6.3 14-14s-6.3-14-14-14zm8.2 19.8c-.3.9-1.8 1.7-2.5 1.8-.7.1-1.3.5-4.5-.9-3.8-1.7-6.2-5.6-6.4-5.9-.2-.2-1.7-2.2-1.7-4.3 0-2.1 1.1-3.1 1.5-3.5.4-.4.8-.5 1.1-.5h.8c.3 0 .6 0 .9.7.3.7 1.1 2.7 1.2 2.9.1.2.2.4.1.7-.1.2-.2.4-.4.6-.2.2-.4.5-.5.6-.2.2-.4.4-.2.8.3.4 1.1 1.8 2.3 2.9 1.6 1.4 3 1.9 3.4 2.1.4.2.7.2.9-.1.3-.3 1-1.2 1.3-1.6.3-.4.5-.4.9-.2.4.2 2.4 1.1 2.8 1.4.4.2.7.3.8.5.1.2.1 1.1-.2 2z"/>
</svg>
